<?xml version="1.0"?>
<svg width="768" height="768" xmlns="http://www.w3.org/2000/svg" xmlns:svg="http://www.w3.org/2000/svg" version="1.1">
 <title id="titleID">pineapple</title>
 <desc id="descID">AI-generated SVG illustration: pineapple, created on https://svgstud.io</desc>
 <metadata>Created by https://svgstud.io and licensed under CC-BY-SA 4.0 license. Please attribute https://svgstud.io</metadata>
 <metadata>pineapple</metadata>
 <metadata>7</metadata>
 <metadata>https://svgstud.io</metadata>
 <metadata id="uid">675039b1e482ee9df8a96399229d3d5ee8047362923ccea95419c4ab51463360</metadata>
 <g class="layer">
  <title>Layer 1</title>
  <image height="768" id="svg_2" opacity="0" width="768" x="0" y="0"/>
  <path d="m412,721.85c-6.88,-0.08 -17.27,-0.48 -23.1,-0.9c-5.83,-0.42 -15.96,-1.52 -22.5,-2.45c-6.55,-0.93 -15.05,-2.71 -18.9,-3.97c-5.45,-1.76 -10.33,-2.4 -22,-2.87c-8.25,-0.34 -23.99,-1.75 -34.97,-3.14c-10.98,-1.4 -22.77,-3.03 -26.18,-3.62c-3.42,-0.6 -7.03,-1.72 -8.03,-2.49c-1.75,-1.36 -1.74,-1.47 0.17,-2.94c1.09,-0.85 4.85,-2.42 8.35,-3.5c3.5,-1.08 8.91,-1.98 12.02,-1.99c3.1,0 6.25,-0.4 6.99,-0.87c0.93,-0.59 -6.21,-4.61 -23,-12.96c-23.63,-11.74 -24.64,-12.14 -34.12,-13.38c-9.77,-1.27 -9.77,-1.27 -7.88,-4.98c1.04,-2.04 4.52,-7.36 7.74,-11.83c3.22,-4.47 9.01,-11.12 12.88,-14.8c3.87,-3.67 9.93,-8.61 13.48,-10.97c3.55,-2.37 8.42,-4.83 10.83,-5.48c4.19,-1.12 4.35,-1.3 3.72,-4.19c-0.36,-1.66 -0.9,-4.71 -1.21,-6.77c-0.44,-2.99 -0.98,-3.75 -2.67,-3.73c-1.17,0.01 -4.09,0.92 -6.51,2.01c-2.41,1.1 -7.14,4.23 -10.5,6.96c-3.36,2.74 -9.04,8.6 -12.61,13.02c-5.59,6.92 -6.85,7.99 -9,7.57c-1.38,-0.27 -9.08,-2.25 -17.12,-4.41c-8.05,-2.16 -20.87,-4.87 -28.5,-6.04c-7.64,-1.16 -16.58,-2.47 -19.88,-2.91c-6,-0.81 -6,-0.81 -2.7,-2.88c2.75,-1.74 6.12,-2.27 20.5,-3.25c9.46,-0.64 22.15,-1.26 28.2,-1.38c11,-0.21 11,-0.21 4.41,-3.48c-3.62,-1.8 -9.7,-3.93 -13.5,-4.73c-3.8,-0.81 -8.48,-1.51 -10.41,-1.57c-3.5,-0.1 -3.5,-0.1 2,-2.73c5.37,-2.56 6.14,-2.64 32.35,-3.34c14.76,-0.4 27.14,-1.01 27.5,-1.37c0.35,-0.36 -0.2,-1.27 -1.24,-2.03c-1.03,-0.76 -4.18,-1.83 -6.99,-2.39c-2.82,-0.56 -7.37,-1.32 -10.12,-1.68c-5,-0.66 -5,-0.66 -1.5,-2.13c1.93,-0.81 6.43,-1.9 10,-2.41c3.57,-0.51 9.43,-0.63 13,-0.27c6.5,0.67 6.5,0.67 1.06,-3.71c-3,-2.4 -9.42,-8.05 -14.27,-12.54c-4.85,-4.49 -12.97,-11.32 -18.05,-15.18c-5.39,-4.08 -14.76,-9.75 -22.49,-13.58c-7.29,-3.62 -13.25,-7.03 -13.25,-7.58c0,-0.54 1.75,-0.99 3.89,-0.99c2.14,0 8.19,1.12 13.45,2.48c5.25,1.37 13.29,4.02 17.86,5.9c4.56,1.88 11.84,4.13 16.16,5.02c4.32,0.88 9.91,1.6 12.42,1.6c4.57,0 4.57,0 2.14,-2.59c-1.33,-1.42 -6.02,-4.32 -10.42,-6.44c-4.4,-2.12 -11.28,-4.95 -15.29,-6.29c-5.95,-1.98 -6.86,-2.55 -5,-3.1c1.26,-0.37 10.61,-0.92 20.79,-1.23c14.81,-0.45 20,-0.24 26,1.05c4.12,0.88 7.84,1.6 8.25,1.6c0.41,0 0.75,-0.63 0.75,-1.39c0,-0.76 -2.08,-4.25 -4.61,-7.75c-2.54,-3.5 -7.83,-9.66 -11.75,-13.68c-7.02,-7.21 -7.07,-7.3 -3.14,-5.54c2.2,0.99 7.42,4.15 11.6,7.04c4.19,2.89 12.09,7.48 17.56,10.2c5.47,2.72 10.55,5.67 11.28,6.55c1.17,1.4 0.58,2.32 -4.55,7.07c-3.24,3 -6.88,5.74 -8.1,6.08c-1.21,0.34 -6.66,-0.14 -12.12,-1.05c-5.45,-0.92 -11.66,-1.52 -13.79,-1.33c-3.88,0.33 -3.88,0.33 0.12,2.13c2.2,1 7.49,2.75 11.75,3.9c4.26,1.15 7.75,2.52 7.75,3.05c0,0.53 -1.58,3.55 -3.5,6.72c-3.49,5.75 -3.53,5.77 -9.25,6.41c-3.16,0.35 -7.89,0.89 -10.5,1.21c-2.61,0.31 -4.75,0.9 -4.75,1.31c0,0.41 1.24,1.31 2.75,2c1.51,0.69 5.74,3.47 9.39,6.17c3.65,2.71 6.9,5.93 7.23,7.16c0.33,1.23 0.61,3.98 0.62,6.11c0,2.26 1.47,7.11 3.51,11.63c1.93,4.26 3.5,8.19 3.5,8.72c0,0.53 1.75,3.68 3.89,6.98c2.81,4.36 6.19,7.69 12.25,12.1c4.97,3.62 9.12,7.5 10.24,9.59c1.03,1.93 2.91,4.47 4.18,5.66c1.26,1.19 5.14,3.67 8.62,5.52c3.47,1.85 8.61,4.5 11.4,5.89c2.8,1.39 7.15,2.82 9.68,3.16c4.05,0.56 5.37,0.2 11.08,-2.99c3.57,-2 7.44,-3.63 8.62,-3.63c1.37,0 4.89,2.91 9.84,8.13c4.23,4.47 10.4,9.97 13.7,12.22c3.3,2.26 9.82,6.17 14.5,8.7c4.68,2.52 10.76,6.02 13.52,7.78c3.09,1.96 7.69,3.7 12,4.54c3.84,0.76 10.71,1.93 15.27,2.62c5.06,0.77 11.1,0.99 15.5,0.57c3.97,-0.39 9.1,-1.11 11.4,-1.62c2.31,-0.51 4.78,-0.69 5.5,-0.42c0.72,0.28 2.08,1.85 3.01,3.5c0.94,1.64 2.44,2.98 3.34,2.98c0.9,0 5.06,-2.36 9.25,-5.25c4.18,-2.89 10.15,-7.59 13.25,-10.46c3.1,-2.86 7.06,-7.87 8.8,-11.14c1.74,-3.26 3.15,-6.99 3.13,-8.29c-0.02,-1.67 -1.22,-3.09 -4.09,-4.86c-2.24,-1.38 -4.51,-3.32 -5.04,-4.32c-0.69,-1.27 -0.5,-3.22 0.61,-6.48c0.87,-2.56 2.96,-6.37 4.63,-8.45c2.08,-2.58 2.95,-4.66 2.73,-6.5c-0.27,-2.35 -0.89,-2.8 -4.74,-3.46c-2.43,-0.41 -4.85,-1.17 -5.37,-1.69c-0.52,-0.52 -1.32,-2.89 -1.78,-5.27c-0.46,-2.38 -0.85,-7.32 -0.88,-10.98c-0.04,-6.51 0.03,-6.68 2.96,-7.7c1.97,-0.69 3,-1.73 3,-3.02c0,-1.09 -1.17,-3.36 -2.59,-5.05c-2.3,-2.73 -3.19,-3.08 -7.94,-3.08c-4.14,0 -5.96,-0.52 -8.01,-2.28c-1.96,-1.69 -2.8,-3.55 -3.2,-7.07c-0.51,-4.6 -0.36,-4.97 3.81,-9.22c3.36,-3.43 5.08,-4.43 7.57,-4.43c1.78,0 4.37,0.43 5.76,0.96c2.32,0.88 2.44,1.21 1.45,4.05c-0.6,1.7 -0.83,3.35 -0.52,3.66c0.31,0.3 2.1,-0.39 3.99,-1.56c1.88,-1.16 4.49,-2.1 5.8,-2.09c1.31,0.01 4.29,0.89 6.63,1.95c2.9,1.32 4.25,1.55 4.25,0.73c-0.01,-0.66 -1.33,-2.61 -2.95,-4.34c-1.62,-1.73 -4.9,-4.74 -7.28,-6.69c-2.38,-1.96 -6.99,-5.15 -10.24,-7.11c-3.25,-1.96 -6.93,-3.56 -8.17,-3.56c-1.4,0 -3.26,1.32 -4.91,3.48c-1.46,1.91 -3.66,5.95 -4.89,8.98c-2.23,5.49 -2.23,5.49 -4.72,2.77c-1.37,-1.5 -4.69,-5.88 -7.37,-9.73c-2.68,-3.85 -7.35,-9.61 -10.38,-12.81c-3.03,-3.19 -8.79,-7.85 -12.8,-10.35c-4.01,-2.5 -7.29,-5.11 -7.29,-5.8c0,-0.69 -3.94,-3.29 -8.75,-5.77c-4.81,-2.48 -11.9,-5.52 -15.75,-6.76c-3.85,-1.24 -8.38,-3.09 -10.07,-4.11c-1.69,-1.01 -5.41,-2.35 -8.25,-2.96c-5.03,-1.07 -5.13,-1.17 -3.68,-3.25c0.83,-1.17 1.5,-3.16 1.5,-4.41c0,-1.26 0.44,-2.28 0.99,-2.28c0.54,0 2.17,1.91 3.62,4.25c1.46,2.34 3.33,5.04 4.17,6c1.16,1.32 1.85,1.47 2.87,0.62c0.8,-0.66 1.35,-3.14 1.35,-6.11c0,-2.75 -0.77,-8.75 -1.72,-13.33c-0.94,-4.58 -1.39,-8.65 -1,-9.04c0.39,-0.39 1.53,0.04 2.54,0.95c1.01,0.91 2.56,1.66 3.44,1.66c0.88,0 2.53,-1.19 3.67,-2.63c1.14,-1.45 2.07,-3.2 2.07,-3.88c0,-0.68 -1.29,-1.5 -2.87,-1.81c-1.58,-0.32 -3.15,-1.3 -3.49,-2.18c-0.34,-0.89 -0.33,-7.66 0.03,-15.06c0.48,-10.17 0.96,-13.44 1.97,-13.44c0.73,0 1.59,-1.24 1.92,-2.75c0.34,-1.51 1.24,-4.74 2.02,-7.18c0.78,-2.43 1.42,-6.48 1.42,-9c0,-2.51 0.79,-6.13 1.75,-8.04c1.07,-2.13 2.72,-3.69 4.25,-4.05c2.19,-0.5 2.59,-1.28 3.21,-6.23c0.39,-3.12 1.62,-7.46 2.73,-9.64c1.12,-2.18 4.28,-6.67 7.03,-9.98c2.75,-3.3 7.82,-8.01 11.27,-10.45c3.44,-2.45 9.18,-5.91 12.74,-7.69c3.56,-1.79 8.29,-3.77 10.5,-4.41c2.93,-0.85 4.02,-1.7 4.02,-3.12c0,-1.62 -0.87,-2.05 -5,-2.46c-3.37,-0.34 -5,-0.95 -5,-1.89c0,-0.77 1.15,-2.25 2.56,-3.3c1.45,-1.09 5.01,-2.17 8.25,-2.5c4.55,-0.47 5.48,-0.86 4.62,-1.9c-0.6,-0.72 -2.69,-1.84 -4.65,-2.48c-2.78,-0.92 -4.74,-0.9 -8.84,0.08c-2.9,0.7 -6.04,0.98 -6.97,0.62c-1.51,-0.58 -1.54,-0.9 -0.26,-2.89c0.79,-1.23 3.64,-3.31 6.33,-4.61c4.89,-2.37 4.89,-2.37 1.96,-4.71c-1.61,-1.28 -5.49,-3.3 -8.63,-4.47c-3.66,-1.37 -8.24,-2.17 -12.79,-2.24c-3.89,-0.06 -7.08,-0.44 -7.08,-0.84c0,-0.4 0.77,-1.5 1.71,-2.44c0.94,-0.94 3.08,-2.28 4.75,-2.97c1.67,-0.7 5.74,-1.59 9.04,-1.99c3.3,-0.39 6.37,-0.93 6.82,-1.19c0.44,-0.27 -0.01,-1.38 -1,-2.49c-1,-1.11 -4.77,-3.5 -8.38,-5.32c-3.61,-1.82 -9.01,-3.98 -12,-4.81c-2.99,-0.83 -7.6,-1.79 -10.25,-2.15c-3.03,-0.41 -4.67,-1.09 -4.42,-1.83c0.21,-0.65 2.15,-1.79 4.31,-2.53c2.89,-1 7.21,-1.2 16.42,-0.76c6.88,0.32 14.71,1.27 17.41,2.1c2.71,0.83 5.13,1.3 5.39,1.04c0.26,-0.26 -0.29,-1.63 -1.22,-3.05c-0.93,-1.41 -4.19,-4.47 -7.25,-6.78c-3.05,-2.31 -8.28,-6.53 -11.61,-9.39c-3.34,-2.85 -10.05,-7.54 -14.92,-10.43c-4.87,-2.88 -9.35,-5.83 -9.95,-6.56c-0.85,-1.02 -0.63,-1.32 0.97,-1.32c1.13,0 5.35,1.18 9.37,2.62c4.02,1.44 10.69,4.3 14.81,6.36c4.12,2.06 9.84,5.13 12.71,6.83c2.86,1.7 6.44,3.9 7.96,4.89c2.1,1.37 2.54,1.45 1.87,0.3c-0.48,-0.82 -2.19,-3.19 -3.8,-5.27c-1.62,-2.07 -5.57,-5.79 -8.8,-8.27c-3.9,-3.01 -5.67,-5.01 -5.29,-6c0.32,-0.82 -0.01,-2.19 -0.72,-3.05c-0.71,-0.85 -3.13,-2.53 -5.36,-3.72c-3.99,-2.11 -4.02,-2.16 -1.34,-2.49c1.49,-0.18 5.5,0.38 8.89,1.25c3.4,0.87 6.38,1.38 6.63,1.14c0.25,-0.25 -0.74,-2.62 -2.19,-5.27c-1.45,-2.65 -5.47,-8.79 -8.95,-13.65c-3.48,-4.85 -8.96,-11.83 -12.18,-15.5c-3.23,-3.67 -8.8,-9.14 -12.39,-12.17c-6.52,-5.5 -6.52,-5.5 -2.66,-5.82c2.12,-0.17 9.49,0.89 16.38,2.36c6.89,1.47 15.01,3.52 18.04,4.56c3.03,1.05 6.12,1.9 6.86,1.9c0.74,0 1.34,-0.48 1.34,-1.06c0,-0.58 -2,-5.64 -4.44,-11.25c-2.44,-5.6 -6.31,-13.57 -8.61,-17.69c-2.29,-4.13 -5.77,-10.43 -7.74,-14c-1.96,-3.57 -4.78,-8.3 -6.26,-10.5c-1.47,-2.2 -3.83,-6.28 -5.24,-9.06c-1.4,-2.79 -3.29,-5.68 -4.2,-6.43c-0.9,-0.75 -2.3,-2.64 -3.11,-4.21c-1.31,-2.53 -1.3,-2.9 0.09,-3.44c0.86,-0.33 4.37,0.61 7.79,2.08c3.42,1.47 10.49,5.19 15.72,8.27c5.23,3.08 11.07,6.82 13,8.31c1.93,1.49 4.94,3.44 6.7,4.34c1.76,0.9 3.66,1.64 4.22,1.64c0.56,0 0.84,-0.56 0.63,-1.25c-0.21,-0.69 -0.66,-3.22 -1,-5.62c-0.53,-3.8 -0.39,-4.28 1.05,-3.73c1.4,0.54 1.56,0.14 1.02,-2.57c-0.36,-1.77 -2.89,-8.77 -5.63,-15.56c-2.75,-6.79 -4.99,-13 -4.99,-13.81c0,-0.8 0.37,-1.46 0.81,-1.46c0.45,0 2.09,1.33 3.66,2.96c1.56,1.63 3.22,2.73 3.68,2.45c0.47,-0.29 0.85,-1.4 0.85,-2.47c0,-1.27 0.69,-1.94 1.99,-1.94c1.1,0 5.49,3.08 9.75,6.84c4.27,3.77 11.36,10.65 15.76,15.29c4.4,4.65 8.51,8.77 9.13,9.15c0.73,0.44 2.09,-2.04 3.86,-7.05c1.51,-4.25 4.66,-11.84 7.01,-16.87c2.34,-5.03 6.3,-12.3 8.8,-16.16c2.5,-3.86 6.21,-8.86 8.24,-11.11c2.03,-2.25 4.08,-4.09 4.55,-4.09c0.47,0 1.51,1.25 2.3,2.78c0.79,1.54 3.56,9.07 6.15,16.75c2.59,7.69 5.06,14.63 5.49,15.43c0.59,1.1 3.19,-1.03 10.63,-8.75c5.58,-5.79 10.65,-10.21 11.71,-10.21c1.78,0 1.84,1.09 1.47,23.5c-0.21,12.93 -0.21,23.5 0,23.5c0.22,0 3.09,-2.5 6.39,-5.55c3.3,-3.06 9.2,-7.98 13.11,-10.94c3.92,-2.96 7.28,-5.23 7.47,-5.03c0.19,0.19 -1.65,2.8 -4.09,5.81c-2.45,3 -5.8,7.42 -7.45,9.83c-1.65,2.41 -4.41,7.18 -6.14,10.6c-1.72,3.42 -3.13,7.36 -3.13,8.75c0,1.39 0.4,2.53 0.9,2.53c0.49,0 2.18,-1.47 3.75,-3.26c1.57,-1.8 6.07,-7.76 10.02,-13.25c3.94,-5.5 10.02,-13.24 13.52,-17.22c3.51,-3.98 7.91,-8.36 9.78,-9.75c1.88,-1.39 4.01,-2.52 4.72,-2.52c0.72,0 1.31,0.44 1.31,0.98c0,0.53 -3.6,6.42 -8,13.08c-4.4,6.66 -8,12.73 -8,13.49c0,0.94 0.56,1.14 1.75,0.62c0.96,-0.42 5.08,-2.41 9.15,-4.43c4.07,-2.02 7.78,-3.43 8.25,-3.15c0.47,0.29 0.34,1.52 -0.28,2.72c-0.63,1.2 -8.88,10.07 -18.33,19.69c-9.46,9.62 -19.68,20.65 -22.72,24.5c-3.04,3.85 -8.07,10.9 -11.18,15.66c-3.11,4.77 -6.77,11.07 -8.14,14c-1.49,3.22 -2.48,7.16 -2.49,9.92c-0.01,2.52 0.28,4.87 0.63,5.23c0.35,0.35 3.14,-1.65 6.21,-4.45c3.06,-2.8 6.59,-5.56 7.84,-6.13c1.54,-0.7 4.79,-5.93 9.92,-15.94c4.2,-8.2 9.86,-18.31 12.57,-22.47c2.72,-4.16 7.24,-10 10.04,-12.96c2.81,-2.97 6.63,-6.34 8.5,-7.49c1.86,-1.16 3.56,-1.92 3.78,-1.7c0.22,0.21 -2.97,5.5 -7.07,11.74c-4.11,6.24 -9.93,16.28 -12.95,22.3c-3.01,6.03 -5.48,11.59 -5.48,12.37c0,0.78 0.27,1.42 0.6,1.42c0.32,0 1.87,-0.91 3.43,-2.02c1.56,-1.12 5.72,-3.37 9.24,-5.02c3.52,-1.65 9.48,-3.64 13.25,-4.43c3.76,-0.78 7.21,-1.2 7.66,-0.92c0.45,0.28 0.82,0.89 0.82,1.36c0,0.47 -2.81,2.87 -6.25,5.34c-3.44,2.46 -10.98,8.58 -16.75,13.58c-5.77,5.01 -12.75,10.2 -15.5,11.54c-2.75,1.34 -7.02,2.97 -9.5,3.62c-3.66,0.95 -6.19,2.89 -13.5,10.31c-4.95,5.03 -10.11,11.26 -11.46,13.85c-1.99,3.82 -2.27,5.24 -1.48,7.49c0.54,1.53 1.7,2.92 2.58,3.09c1.01,0.19 4.21,-2.94 8.66,-8.49c3.87,-4.84 9.44,-11.12 12.37,-13.96c2.93,-2.83 8.19,-6.98 11.69,-9.21c3.49,-2.24 9.95,-5.45 14.34,-7.15c4.4,-1.69 8.48,-2.92 9.06,-2.73c0.59,0.2 -2.05,3.94 -5.86,8.31c-3.81,4.36 -8.16,9.44 -9.67,11.27c-1.5,1.83 -2.73,3.72 -2.73,4.22c0,0.49 0.56,0.7 1.25,0.46c0.69,-0.23 7.12,-0.9 14.3,-1.48c7.17,-0.58 14.48,-0.77 16.25,-0.42c1.76,0.35 3.2,1.06 3.2,1.57c0,0.51 -2.59,2.07 -5.75,3.46c-3.16,1.4 -9.37,4.97 -13.8,7.94c-4.43,2.97 -9.34,6.74 -10.91,8.38c-2.11,2.2 -2.49,3.1 -1.45,3.42c0.78,0.25 2.99,0.73 4.91,1.08c1.92,0.34 8.11,1.04 13.74,1.54c5.64,0.51 11.15,1.4 12.25,2c1.11,0.59 2.01,1.4 2.01,1.81c0,0.4 -3.94,1.93 -8.75,3.4c-4.93,1.5 -11.5,4.44 -15.06,6.75c-3.48,2.24 -8.54,6.16 -11.25,8.7c-2.72,2.54 -4.94,4.97 -4.94,5.39c0,0.43 5.06,0.54 11.25,0.24c8.92,-0.43 12.03,-0.22 15,1.03c2.06,0.87 3.75,2.28 3.75,3.13c0,1.05 -0.95,1.55 -2.96,1.55c-1.63,0 -5.34,0.9 -8.25,2c-2.91,1.1 -7.25,3.56 -9.65,5.47c-2.4,1.92 -6,3.74 -8,4.06c-2,0.32 -4.56,0.77 -5.7,1c-1.13,0.22 -3.97,1.7 -6.32,3.28c-2.34,1.57 -5.13,4.17 -6.19,5.78c-1.05,1.6 -1.92,3.25 -1.92,3.66c-0.01,0.41 0.55,0.74 1.24,0.73c0.69,-0.01 4.36,-2.04 8.16,-4.5c4.73,-3.06 7.99,-4.48 10.3,-4.48c1.87,0 4.61,0.63 6.09,1.4c1.49,0.77 3.5,2.28 4.48,3.36c1.74,1.91 1.66,1.97 -3.64,2.51c-2.98,0.31 -6.77,1.26 -8.43,2.12c-1.66,0.86 -3.74,2.28 -4.62,3.16c-0.87,0.88 -1.59,1.97 -1.59,2.44c0,0.46 2.25,2.49 5,4.51c2.75,2.02 5,4.37 5,5.22c0,1.25 -0.7,1.4 -3.75,0.77c-2.06,-0.42 -5.51,-0.82 -7.66,-0.88c-2.15,-0.06 -4.06,0.35 -4.25,0.9c-0.19,0.56 3.82,2.77 8.91,4.91c5.09,2.14 11.5,5.35 14.25,7.15c2.75,1.79 7.55,5.66 10.67,8.59c3.12,2.94 7.78,8.04 10.34,11.34c2.56,3.3 5.57,7.77 6.69,9.93c1.5,2.92 1.87,5.01 1.44,8.15c-0.42,3.11 -0.17,4.56 0.95,5.49c0.84,0.7 2.61,3.12 3.93,5.37c1.32,2.26 2.92,6.57 3.55,9.58c0.63,3.02 1.94,6.38 2.91,7.48c0.98,1.1 2.28,2.98 2.9,4.18c0.61,1.21 1.11,4.81 1.09,8c-0.01,3.63 -0.97,8.45 -2.53,12.82c-1.38,3.85 -2.61,7.65 -2.73,8.44c-0.13,0.89 1.04,1.69 3.08,2.13c1.81,0.38 4.13,1.45 5.15,2.37c1.02,0.93 2.12,3.57 2.45,5.87c0.32,2.3 -0.01,6.89 -0.76,10.19c-0.74,3.3 -1.94,8.1 -2.67,10.66c-1.31,4.59 -1.28,4.71 1.76,8.17c1.75,2 3.36,5.19 3.74,7.43c0.45,2.65 -0.03,6.66 -1.48,12.33c-1.18,4.63 -3.68,12.13 -5.56,16.67c-1.88,4.55 -3.42,8.97 -3.42,9.84c0,1.19 1.02,0.82 4.2,-1.51c2.31,-1.7 4.56,-3.09 5,-3.09c0.44,0 0.8,2.01 0.8,4.47c0,2.45 -0.73,6.61 -1.62,9.25c-0.89,2.63 -2.94,7.58 -4.56,10.99c-2.31,4.91 -2.71,6.63 -1.87,8.19c0.58,1.08 1.05,2.85 1.05,3.92c0,1.08 -2.01,4.69 -4.46,8.02c-2.45,3.33 -5.84,8.8 -7.54,12.16c-1.7,3.36 -5.64,8.9 -8.76,12.3c-3.12,3.41 -9.82,9.69 -14.9,13.96c-5.08,4.27 -9.55,8.26 -9.92,8.87c-0.49,0.79 1.85,0.9 8.33,0.39c5.74,-0.45 9.24,-0.35 9.63,0.29c0.35,0.56 -0.79,2.2 -2.53,3.66c-1.73,1.46 -5.71,3.95 -8.85,5.53c-3.14,1.58 -8.49,3.82 -11.89,4.96c-3.4,1.15 -11.46,3.06 -17.9,4.25c-10.31,1.91 -15.4,2.18 -42.47,2.24c-30.75,0.07 -30.75,0.07 -36.09,9.73c-2.93,5.31 -6.55,11.11 -8.05,12.88c-1.49,1.78 -2.35,3.54 -1.91,3.91c0.45,0.38 3.74,1.48 7.31,2.43c3.57,0.96 7.29,2.46 8.25,3.33c0.96,0.87 1.75,2.18 1.75,2.92c0,0.74 -1.85,2.68 -4.11,4.31c-2.25,1.64 -6.64,3.94 -9.75,5.11c-3.1,1.18 -9.91,3.19 -15.14,4.48c-5.23,1.29 -14.68,3.04 -21,3.88c-6.32,0.84 -17.8,1.98 -25.5,2.54c-7.7,0.56 -19.62,0.96 -26.5,0.88zm-22.45,-16.88c1.68,0.02 3.54,-0.46 4.14,-1.06c0.6,-0.6 5.31,-3.27 10.45,-5.94c5.77,-2.98 8.78,-5.04 7.86,-5.37c-0.82,-0.3 -4.75,-1.2 -8.71,-2.01c-4.04,-0.82 -8.87,-2.59 -10.98,-4.03c-2.08,-1.41 -4.33,-2.56 -5,-2.56c-0.68,0 -1.92,2.33 -2.77,5.18c-0.85,2.85 -1.54,6.23 -1.54,7.5c0,1.91 -0.53,2.32 -3,2.32c-1.65,0 -3,0.39 -3,0.87c0,0.48 2.14,1.82 4.75,2.97c2.61,1.15 6.12,2.11 7.8,2.13zm-36.53,-26.97c3.22,0 7.12,-0.48 8.66,-1.08c2.82,-1.07 2.82,-1.07 0.32,-2.46c-1.38,-0.76 -3.23,-1.41 -4.13,-1.42c-0.89,-0.02 -2.19,-0.72 -2.88,-1.55c-0.99,-1.19 -1,-2.77 -0.05,-7.59c0.66,-3.35 0.97,-6.32 0.69,-6.61c-0.28,-0.28 -2.68,1.29 -5.32,3.49c-2.65,2.2 -6.16,4.66 -7.81,5.47c-1.65,0.81 -4.27,1.77 -5.82,2.15c-1.57,0.37 -2.64,1.21 -2.42,1.89c0.22,0.66 3.21,2.67 6.66,4.46c4.97,2.58 7.46,3.25 12.1,3.25zm-47.47,-9c0.19,0 -0.32,-1.59 -1.13,-3.54c-0.82,-1.95 -2.14,-8.82 -2.94,-15.25c-0.81,-6.44 -1.47,-12.05 -1.47,-12.46c-0.01,-0.41 -0.43,-0.75 -0.93,-0.75c-0.51,0 -2.41,1.46 -4.22,3.25c-1.95,1.93 -3.18,4.06 -3.02,5.25c0.15,1.1 0.92,4.33 1.72,7.18c1.02,3.63 2.97,6.83 6.55,10.75c2.8,3.06 5.25,5.57 5.44,5.57zm-57.55,-16.6c1.93,-0.39 10.7,-1.93 19.5,-3.42c14.36,-2.44 15.97,-2.91 15.67,-4.6c-0.18,-1.03 -0.97,-2.89 -1.76,-4.11c-0.79,-1.23 -2.48,-2.5 -3.76,-2.82c-1.27,-0.32 -4.94,0.34 -8.15,1.47c-3.21,1.12 -9.02,3.87 -12.92,6.11c-3.89,2.23 -8.2,4.97 -9.58,6.07c-2.5,2.02 -2.5,2.02 1,1.3zm293.75,-11.4c0.41,-0.01 2.21,-0.9 4,-1.99c1.79,-1.09 3.25,-2.66 3.25,-3.5c0,-0.83 -0.59,-1.51 -1.31,-1.51c-0.73,0 -2.53,1.26 -4,2.8c-1.48,1.55 -2.69,3.12 -2.69,3.5c0,0.39 0.34,0.7 0.75,0.7zm-19.46,-3.01c1.39,0.01 1.57,-0.37 0.83,-1.74c-0.53,-0.96 -2.52,-3.25 -4.43,-5.09c-1.9,-1.83 -3.72,-2.92 -4.03,-2.41c-0.32,0.51 -0.23,2.23 0.2,3.84c0.43,1.6 1.87,3.47 3.21,4.15c1.34,0.67 3.23,1.24 4.22,1.25zm-88.34,-6.99c-0.98,0 -3.66,-2.14 -5.96,-4.75c-2.31,-2.61 -6.57,-8.35 -9.47,-12.75c-2.91,-4.4 -6.78,-10.9 -8.6,-14.44c-2.3,-4.45 -3.45,-8.24 -3.74,-12.28c-0.23,-3.21 0.13,-7.83 0.81,-10.26c0.68,-2.43 2.05,-5.15 3.04,-6.04c1.61,-1.47 2.07,-1.48 4.72,-0.11c1.62,0.84 6.32,5.12 10.46,9.51c5.35,5.69 8.7,10.4 11.6,16.31c2.24,4.57 4.49,10.71 5.01,13.63c0.56,3.19 0.58,6.93 0.04,9.3c-0.49,2.18 -2.07,5.75 -3.51,7.92c-1.44,2.18 -3.42,3.96 -4.4,3.96zm150.17,-8.88c2.03,-2.12 5.73,-4.84 8.21,-6.04c2.48,-1.2 5.11,-2.9 5.84,-3.78c1.21,-1.46 0.67,-1.54 -5.83,-0.9c-4.04,0.4 -7.4,0.31 -7.72,-0.2c-0.3,-0.5 -0.1,-3.77 0.47,-7.26c0.56,-3.5 0.76,-7.39 0.45,-8.65c-0.32,-1.26 -1.06,-2.29 -1.64,-2.29c-0.59,0 -5.77,4.79 -11.52,10.64c-5.75,5.86 -10.3,11.09 -10.12,11.63c0.18,0.54 3.19,2.02 6.69,3.29c3.5,1.27 7.52,3.45 8.92,4.85c2.55,2.56 2.55,2.56 6.25,-1.29zm-166.44,2.87c-0.65,0 -3.61,-1.4 -6.57,-3.1c-2.96,-1.7 -8.03,-5.65 -11.25,-8.79c-3.22,-3.13 -5.86,-6.24 -5.86,-6.9c0,-0.66 0.9,-2.1 2,-3.2c1.1,-1.1 2.98,-2 4.17,-2c1.27,0 3.87,1.8 6.25,4.34c2.24,2.38 5.96,7.78 8.26,12c2.29,4.21 3.64,7.66 3,7.65zm212.25,-15.99c0.63,0 3.37,-2.07 6.08,-4.6c2.71,-2.54 5.21,-5.51 5.56,-6.61c0.34,-1.09 0.24,-2.38 -0.24,-2.86c-0.5,-0.5 -2.62,1.16 -4.93,3.85c-2.23,2.59 -4.86,5.96 -5.84,7.47c-1.12,1.72 -1.36,2.75 -0.63,2.75zm-106.18,-2.53c3.16,-0.37 7.55,-1.06 9.75,-1.55c2.2,-0.48 6.59,-0.88 9.75,-0.9c3.16,-0.01 5.75,-0.4 5.75,-0.86c0,-0.46 -2.89,-3.61 -6.41,-7c-3.53,-3.39 -6.69,-6.16 -7.03,-6.16c-0.34,0 -3.46,2.65 -6.94,5.89c-3.48,3.23 -7.29,6.4 -8.47,7.03c-1.18,0.63 -2.15,1.84 -2.15,2.69c0,1.28 0.95,1.42 5.75,0.86zm91.2,-12.94c0.45,-0.28 1.14,-2.18 1.52,-4.22c0.38,-2.05 1.56,-5.4 2.6,-7.46c1.05,-2.05 3.92,-5.42 6.38,-7.47c2.46,-2.06 4.72,-4.39 5.03,-5.19c0.3,-0.79 0.04,-2.06 -0.59,-2.82c-0.62,-0.75 -1.8,-1.37 -2.6,-1.37c-0.81,0 -2.64,0.91 -4.05,2.03c-2.02,1.58 -2.77,1.75 -3.44,0.75c-0.47,-0.7 -0.8,-4.2 -0.72,-7.78c0.08,-3.58 0.09,-7.29 0.03,-8.25c-0.06,-0.96 -0.67,-1.74 -1.36,-1.73c-0.69,0.01 -3.58,3.72 -6.43,8.25c-2.85,4.53 -6.67,9.81 -8.5,11.73c-1.83,1.93 -4.9,4.69 -6.82,6.15c-3.5,2.64 -3.5,2.64 4,6.1c5.35,2.46 8.45,4.65 10.81,7.62c1.83,2.29 3.69,3.94 4.14,3.66zm-53.56,-5.53c0.25,0 1.19,-2.23 2.1,-4.96c0.9,-2.73 2.71,-5.99 4.02,-7.25c1.31,-1.26 4.29,-2.75 6.61,-3.32c2.33,-0.57 4.41,-1.55 4.62,-2.19c0.21,-0.63 -2.14,-3.14 -5.23,-5.56c-3.08,-2.42 -6.73,-6.05 -8.1,-8.06c-1.36,-2.01 -2.91,-3.66 -3.43,-3.66c-0.53,0 -2.04,1.72 -3.36,3.81c-1.32,2.1 -4.76,5.93 -7.65,8.52c-2.88,2.59 -6.53,5.48 -8.11,6.41c-1.58,0.94 -2.72,2.17 -2.52,2.73c0.22,0.61 2.92,0.89 6.57,0.7c4.36,-0.23 6.89,0.13 8.55,1.21c1.3,0.85 2.89,3.25 3.53,5.33c0.64,2.09 1.34,4.35 1.55,5.04c0.22,0.69 0.6,1.25 0.85,1.25zm-199.39,-2.47c-2.08,0.27 -6.55,-0.49 -11,-1.88c-4.12,-1.28 -10.88,-3.71 -15,-5.4c-4.12,-1.69 -10.48,-4.42 -14.13,-6.07c-3.65,-1.64 -6.93,-3.47 -7.29,-4.05c-0.36,-0.58 0.23,-1.94 1.31,-3.02c1.08,-1.08 4.08,-2.28 6.67,-2.67c2.59,-0.39 11.06,-0.46 18.82,-0.16c8.83,0.34 16.11,1.16 19.43,2.19c2.91,0.9 6.16,2.5 7.22,3.56c1.06,1.06 2.2,3.06 2.55,4.44c0.35,1.39 0.36,3.63 0.02,4.98c-0.34,1.35 -1.62,3.62 -2.86,5.04c-1.35,1.55 -3.63,2.76 -5.74,3.04zm168.45,-27.01c0.58,-0.99 2.7,-4.32 4.72,-7.41c2.43,-3.72 5.54,-6.79 9.2,-9.11c3.04,-1.93 5.56,-4.24 5.58,-5.14c0.03,-0.91 -0.74,-2 -1.7,-2.43c-0.96,-0.44 -4.63,-1.05 -8.15,-1.36c-5.32,-0.47 -6.7,-0.99 -8.2,-3.07c-1,-1.38 -2.11,-3.77 -2.48,-5.33c-0.68,-2.83 -0.68,-2.83 5,0.37c3.12,1.76 5.95,2.93 6.28,2.59c0.34,-0.33 -3,-4.55 -7.41,-9.37c-4.41,-4.82 -8.72,-8.9 -9.59,-9.07c-0.97,-0.19 -3.62,2.45 -7.02,7c-2.99,4.02 -6.18,8.75 -7.06,10.51c-0.89,1.76 -1.62,3.45 -1.62,3.75c0,0.3 0.69,0.55 1.52,0.55c0.84,0 3.48,-1.8 5.86,-4c2.39,-2.2 4.81,-4 5.37,-4c0.57,0 1.31,0.71 1.64,1.58c0.34,0.87 0.61,2.7 0.61,4.07c0,1.36 -0.46,3.34 -1.02,4.38c-0.56,1.05 -2.92,2.42 -5.25,3.05c-2.46,0.66 -6.79,0.88 -10.37,0.51c-3.38,-0.34 -7.32,-0.18 -8.75,0.37c-1.44,0.54 -2.61,1.66 -2.61,2.48c0,0.88 1.53,1.87 3.75,2.44c2.06,0.53 7.46,1.27 12,1.64c6.04,0.51 8.94,1.23 10.84,2.73c1.43,1.12 3.77,4.74 5.2,8.05c2.23,5.15 2.76,5.76 3.66,4.22zm60.49,-4.52c0.59,0 3.78,-3.66 7.1,-8.13c3.31,-4.48 5.79,-8.38 5.49,-8.67c-0.29,-0.3 -1.65,0.06 -3.02,0.8c-1.37,0.73 -4.03,3.62 -5.91,6.41c-1.89,2.8 -3.72,6.1 -4.08,7.34c-0.39,1.34 -0.22,2.25 0.42,2.25zm54.3,-8.86c0.4,-0.39 1.19,-3.12 1.75,-6.06c0.55,-2.94 1.01,-7.58 1.01,-10.3c0,-3.5 -0.37,-4.83 -1.25,-4.56c-0.69,0.21 -3.16,4.13 -5.49,8.7c-2.33,4.57 -3.96,8.75 -3.63,9.29c0.34,0.54 2.02,1.59 3.74,2.32c1.72,0.73 3.46,1 3.87,0.61zm-60.44,-2.61c0.36,-0.36 2.02,-3.2 3.68,-6.3c2.75,-5.14 3.55,-5.85 8.94,-7.92c3.25,-1.25 6.95,-3.25 8.21,-4.44c1.27,-1.19 2.07,-2.55 1.78,-3.02c-0.29,-0.47 -2.68,-0.85 -5.32,-0.85c-2.64,0 -6.2,-0.49 -7.93,-1.09c-2.4,-0.84 -3.36,-1.95 -4.09,-4.75c-0.53,-2.01 -1.27,-6.48 -1.65,-9.93c-0.37,-3.45 -1.05,-6.5 -1.49,-6.77c-0.44,-0.28 -4.16,3.67 -8.25,8.77c-4.1,5.1 -9.98,11.73 -13.06,14.74c-3.09,3 -5.62,5.76 -5.62,6.13c0,0.36 3.21,1.13 7.13,1.72c5.58,0.83 7.77,1.66 10.09,3.87c1.63,1.54 3.85,4.54 4.94,6.66c1.09,2.11 2.28,3.55 2.64,3.18zm-112.02,-5.53c2.2,0 2.13,-0.23 -1.61,-5.75c-2.15,-3.16 -4.58,-6.87 -5.41,-8.25c-1.09,-1.82 -3.49,-3.11 -8.88,-4.76c-4.06,-1.24 -8.17,-2.26 -9.13,-2.25c-1.01,0.01 -1.75,0.77 -1.75,1.81c0,0.99 1.69,4.12 3.75,6.97c3.16,4.36 4.58,5.42 9.04,6.74c2.91,0.86 6.74,2.45 8.5,3.53c1.77,1.07 4.24,1.95 5.49,1.96zm163.27,-11.09c1.4,0.05 3.09,-0.45 3.75,-1.11c0.66,-0.66 1.2,-2.36 1.2,-3.78c0,-1.43 0.9,-5.15 2,-8.28c1.1,-3.13 2,-7.01 2,-8.63c0,-1.62 -0.27,-3.66 -0.61,-4.53c-0.33,-0.87 -0.98,-1.58 -1.44,-1.58c-0.46,0 -2.53,3.22 -4.6,7.16c-2.07,3.94 -5.98,9.37 -8.68,12.08c-2.76,2.75 -4.53,5.28 -4.04,5.76c0.48,0.46 2.45,1.29 4.37,1.83c1.92,0.54 4.65,1.03 6.05,1.08zm-151.05,-0.91c0.41,0 2.47,-2.97 4.59,-6.59c2.12,-3.62 5.18,-7.56 6.79,-8.75c1.62,-1.19 6.13,-3.73 10.03,-5.66c3.9,-1.93 7.09,-3.9 7.09,-4.4c0,-0.49 -1.8,-1.51 -4,-2.26c-2.2,-0.74 -4.99,-2.57 -6.21,-4.06c-2.21,-2.71 -2.21,-2.71 -4.64,-0.42c-1.92,1.8 -2.62,2.01 -3.28,0.97c-0.47,-0.73 -2.3,-5.57 -4.07,-10.75c-1.77,-5.18 -3.89,-10.1 -4.71,-10.92c-1.33,-1.33 -1.96,-1.18 -5.63,1.37c-2.27,1.57 -7.01,6.08 -10.54,10.03c-3.53,3.94 -6.42,7.68 -6.42,8.3c0,0.63 0.5,1.14 1.11,1.14c0.61,0 4.35,-3.15 8.33,-7c3.97,-3.86 7.52,-6.71 7.89,-6.34c0.37,0.37 0.67,4.15 0.67,8.4c0,6.01 -0.41,8.22 -1.85,10c-1.62,2.01 -3.03,2.35 -11.75,2.86c-8.98,0.53 -9.9,0.76 -9.9,2.54c0,1.6 1.43,2.37 7.5,4.07c4.12,1.16 8.94,2.86 10.7,3.79c2.46,1.29 3.69,3.04 5.38,7.68c1.2,3.3 2.52,6 2.92,6zm-180.24,-2.67c-2.74,1.85 -2.74,1.85 -8.52,-3.99c-3.18,-3.21 -7.44,-7.08 -9.45,-8.58c-2.02,-1.51 -6.19,-6.1 -9.27,-10.18c-3.07,-4.09 -9.16,-10.8 -13.53,-14.91c-4.37,-4.11 -12.68,-10.49 -18.47,-14.18c-5.78,-3.69 -10.52,-7.07 -10.52,-7.5c0,-0.44 1.91,-0.58 4.25,-0.31c2.34,0.27 9.68,1.77 16.31,3.34c6.64,1.57 15.64,4.26 20,5.98c4.37,1.72 9.74,4.3 11.94,5.73c2.2,1.44 7.6,5.68 12,9.44c4.4,3.75 11.38,9.75 15.5,13.32c4.12,3.57 7.84,6.5 8.25,6.5c0.41,0.01 0.75,0.59 0.75,1.3c0,0.71 -3.71,3.75 -8.25,6.74c-4.54,3 -9.48,6.29 -10.99,7.3zm116.47,-9.41c1.11,0.05 1.94,-0.9 2.31,-2.67c0.32,-1.51 1.03,-4.77 1.59,-7.25c0.56,-2.48 1.75,-5.31 2.65,-6.3c1.55,-1.72 1.86,-1.55 6.38,3.5c2.73,3.04 4.77,4.65 4.8,3.77c0.02,-0.85 -1.53,-4.45 -3.46,-8c-1.92,-3.56 -5.29,-8.49 -7.48,-10.97c-3.22,-3.64 -4.17,-4.22 -4.94,-3.04c-0.53,0.81 -1.93,5.38 -3.11,10.16c-1.64,6.65 -2.6,8.81 -4.06,9.19c-1.13,0.3 -1.91,1.38 -1.91,2.65c0,1.17 0.67,3.43 1.48,5c0.81,1.57 2.05,3.09 2.75,3.37c0.7,0.28 2.05,0.55 3,0.59zm135.74,-3.92c0.47,0 1.15,-1.91 1.51,-4.25c0.36,-2.34 1.3,-6.56 2.08,-9.39c0.99,-3.53 2.49,-6.04 4.79,-8c1.84,-1.57 4.81,-3.65 6.59,-4.61c1.77,-0.96 3.04,-2.31 2.81,-3c-0.23,-0.69 -1.05,-1.33 -1.83,-1.43c-0.78,-0.1 -3.14,-0.47 -5.24,-0.81c-3.43,-0.56 -4.08,-1.17 -6.23,-5.81c-1.32,-2.85 -2.69,-7.1 -3.04,-9.44c-0.35,-2.34 -0.98,-4.26 -1.4,-4.26c-0.42,0 -1.22,0.56 -1.77,1.25c-0.55,0.69 -1.73,3.81 -2.63,6.93c-1.04,3.65 -2.57,6.43 -4.25,7.75c-1.73,1.36 -4.1,2.07 -6.93,2.07c-3.42,0 -4.42,0.41 -4.93,2c-0.35,1.1 -0.37,2.84 -0.04,3.87c0.44,1.4 -0.14,2.17 -2.36,3.09c-1.63,0.67 -3.74,2.08 -4.69,3.14c-0.95,1.05 -1.45,2.2 -1.1,2.54c0.35,0.35 4.49,0.99 9.21,1.42c4.81,0.43 9.63,1.46 10.95,2.33c1.33,0.87 3.29,4.04 4.5,7.26c1.18,3.15 2.37,6.09 2.64,6.53c0.28,0.45 0.89,0.82 1.36,0.82zm48.74,0c0.71,0 1.29,-0.44 1.29,-0.98c0,-0.53 -2.29,-2.78 -5.09,-5c-2.8,-2.21 -5.57,-4.02 -6.15,-4.02c-0.59,0 -0.24,1.01 0.77,2.25c1.01,1.24 3.2,3.49 4.87,5c1.66,1.51 3.6,2.75 4.31,2.75zm-269.23,-3c-0.61,0 -2.41,-1.37 -4.01,-3.04c-1.6,-1.67 -8.63,-7.62 -15.62,-13.23c-6.99,-5.62 -12.6,-10.31 -12.47,-10.44c0.13,-0.13 4.03,0.67 8.68,1.77c4.64,1.1 11.93,3.64 16.2,5.63c4.26,2 8,3.39 8.29,3.09c0.3,-0.3 -1.24,-7.23 -3.42,-15.41c-2.18,-8.18 -4.95,-17.49 -6.15,-20.69c-1.19,-3.2 -1.94,-6.05 -1.66,-6.33c0.28,-0.28 1.56,0.04 2.84,0.7c1.29,0.67 5.34,3.65 9.01,6.63c3.66,2.98 8.21,7.3 10.11,9.62c1.89,2.31 5.98,8.14 9.09,12.95c3.1,4.81 6.09,8.75 6.64,8.75c0.54,0 0.99,-2.33 0.99,-5.19c0,-5.18 0,-5.18 3.04,-2.28c1.67,1.6 6.19,8.04 10.04,14.31c3.86,6.27 6.88,11.5 6.72,11.62c-0.17,0.12 -3.9,-0.13 -8.3,-0.55c-4.4,-0.42 -12.37,-0.8 -17.7,-0.84c-5.64,-0.04 -12.12,0.56 -15.46,1.43c-3.17,0.82 -6.26,1.5 -6.86,1.5zm281.05,-2c0.26,0 2.5,-4.27 4.99,-9.49c2.7,-5.65 5.55,-10.16 7.04,-11.14c1.39,-0.91 3,-2.54 3.58,-3.63c1.02,-1.9 0.79,-1.97 -5.54,-1.57c-3.63,0.24 -6.6,0.23 -6.6,0c0,-0.24 -0.72,-4.99 -1.6,-10.55c-0.88,-5.57 -2.06,-10.68 -2.61,-11.36c-0.56,-0.68 -1.37,-1.02 -1.81,-0.75c-0.43,0.27 -2.12,2.85 -3.75,5.74c-1.63,2.89 -4.95,7.08 -7.37,9.31c-2.41,2.23 -5.83,4.9 -7.6,5.94c-1.76,1.04 -3.43,2.5 -3.71,3.23c-0.28,0.74 0.04,1.52 0.72,1.74c0.68,0.22 3.8,1.11 6.94,1.98c4.24,1.17 6.36,2.43 8.2,4.85c1.37,1.79 3.31,5.04 4.32,7.23c1,2.18 2.39,4.98 3.08,6.22c0.69,1.24 1.47,2.25 1.72,2.25zm-172.67,-14c0.39,0 2.39,-2.25 4.44,-4.99c2.62,-3.51 5.53,-5.91 9.78,-8.05c3.33,-1.68 5.88,-3.58 5.67,-4.21c-0.21,-0.63 -2.38,-1.66 -4.82,-2.29c-2.44,-0.62 -5.45,-1.67 -6.69,-2.33c-1.23,-0.66 -2.24,-1.63 -2.24,-2.17c0,-0.53 0.56,-0.85 1.25,-0.71c0.69,0.14 1.2,-0.64 1.15,-1.75c-0.06,-1.1 -0.87,-5.59 -1.81,-9.97c-0.93,-4.39 -1.87,-8.14 -2.08,-8.35c-0.21,-0.21 -0.92,-0.05 -1.58,0.36c-0.66,0.41 -3.4,5.41 -6.09,11.1c-4.88,10.36 -4.88,10.36 -9.8,10.36c-2.71,0 -5.18,0.41 -5.49,0.92c-0.31,0.5 -0.16,1.98 0.34,3.28c0.66,1.74 2.44,2.85 6.75,4.2c3.22,1 6.4,2.26 7.06,2.79c0.65,0.53 1.7,3.4 2.32,6.39c0.62,2.98 1.44,5.42 1.84,5.42zm77.2,-11.54c0.51,-0.31 2.43,-3.81 4.27,-7.77c1.9,-4.1 5.61,-9.68 8.65,-13c2.93,-3.19 7.28,-7.15 9.67,-8.79c2.39,-1.65 4.35,-3.45 4.35,-4c0,-0.55 -1.69,-1.67 -3.75,-2.5c-2.06,-0.82 -4.66,-1.94 -5.76,-2.49c-1.11,-0.55 -4.66,-4.58 -7.9,-8.95c-3.23,-4.38 -6.52,-7.96 -7.31,-7.96c-0.8,0 -3.42,1.62 -5.83,3.59c-2.41,1.98 -5.75,5.66 -7.42,8.18c-1.67,2.51 -3.03,5.17 -3.03,5.9c0,0.73 0.81,1.33 1.8,1.33c0.99,0 4.35,-2.27 7.47,-5.05c5.38,-4.8 5.69,-4.94 6.14,-2.75c0.26,1.26 0.73,4.61 1.05,7.42c0.31,2.82 0.29,5.86 -0.05,6.75c-0.34,0.9 -1.54,1.63 -2.66,1.63c-1.12,0 -4.01,0.99 -6.44,2.2c-3.92,1.96 -4.76,2.06 -7.61,0.9c-1.76,-0.72 -4.18,-1.53 -5.38,-1.8c-1.57,-0.37 -3.36,0.6 -6.41,3.44c-2.32,2.17 -3.94,4.4 -3.6,4.96c0.35,0.55 3.45,1.3 6.9,1.66c3.45,0.36 8.3,1.67 10.78,2.9c3.66,1.82 5.14,3.43 7.83,8.51c1.82,3.45 3.73,6.01 4.24,5.69zm58.14,-8.46c1.35,0 1.67,-0.41 1.1,-1.42c-0.44,-0.77 -2.6,-2.84 -4.8,-4.59c-2.2,-1.75 -5.27,-3.84 -6.82,-4.65c-1.55,-0.8 -3.34,-1.29 -3.98,-1.07c-0.68,0.22 0.08,1.56 1.81,3.2c1.65,1.54 4.75,4.1 6.89,5.67c2.15,1.57 4.75,2.86 5.8,2.86zm-108.07,-8.58c0.34,-0.21 1.11,-2.33 1.71,-4.7c0.6,-2.38 2.45,-6.2 4.11,-8.49c1.66,-2.3 4.81,-5.09 7,-6.2c2.18,-1.12 4.55,-2.04 5.26,-2.05c0.71,0 1.94,-0.42 2.73,-0.92c1.16,-0.74 0.77,-1.63 -2.05,-4.76c-1.91,-2.11 -4.54,-6.53 -5.84,-9.82c-1.3,-3.29 -2.72,-6.39 -3.16,-6.89c-0.47,-0.53 -1.48,-0.35 -2.43,0.44c-0.89,0.74 -2.74,3.56 -4.11,6.27c-2.3,4.54 -2.72,4.88 -5.42,4.34c-2.13,-0.43 -4.2,0.16 -7.67,2.21c-2.62,1.53 -4.76,3.35 -4.76,4.04c0,0.69 2.48,2.46 5.5,3.93c4.44,2.16 5.56,3.21 5.82,5.42c0.31,2.71 0.26,2.73 -4.28,2.11c-3.92,-0.54 -4.5,-0.4 -3.98,0.95c0.34,0.87 1.58,2.23 2.77,3.02c1.2,0.79 3.52,3.7 5.17,6.46c1.65,2.77 3.28,4.86 3.63,4.64zm115.02,0.58c0.42,0 1.22,-1.69 1.76,-3.75c0.54,-2.06 1.28,-5.01 1.66,-6.56c0.37,-1.54 2.08,-4.24 3.8,-6c1.72,-1.75 4.9,-4.56 7.06,-6.24c2.44,-1.9 3.65,-3.51 3.19,-4.25c-0.45,-0.73 -3.23,-1.2 -7.06,-1.2c-4.48,0 -6.69,-0.45 -7.6,-1.55c-0.71,-0.85 -2.5,-4.99 -3.99,-9.2c-1.48,-4.21 -3.16,-7.81 -3.73,-8c-0.57,-0.19 -3.74,3.39 -7.05,7.95c-3.31,4.57 -7.86,10.08 -10.1,12.25c-2.25,2.18 -4.09,4.69 -4.09,5.59c0,1.16 1.53,1.99 5.27,2.82c2.9,0.65 6.74,2.08 8.55,3.18c1.8,1.09 5.14,4.91 7.41,8.48c2.28,3.56 4.49,6.48 4.92,6.48zm54.94,-10c0.33,-3.02 1.39,-7.04 2.36,-8.91c1.75,-3.38 1.74,-3.44 -0.59,-5.23c-1.3,-1 -3.58,-1.83 -5.07,-1.84c-1.65,-0.01 -3.13,-0.78 -3.75,-1.95c-0.57,-1.07 -1.04,-3.43 -1.05,-5.25c0,-1.83 -0.47,-5.01 -1.04,-7.07c-0.58,-2.06 -1.46,-3.75 -1.98,-3.75c-0.51,0 -1.2,1.24 -1.54,2.75c-0.33,1.51 -1.27,5.17 -2.08,8.13c-0.82,2.96 -2.42,6.65 -3.57,8.21c-1.65,2.23 -1.84,3.13 -0.91,4.25c0.64,0.78 2.48,1.68 4.07,2c1.59,0.32 4.49,1.98 6.44,3.69c1.95,1.71 4.57,4.77 5.83,6.79c2.29,3.68 2.29,3.68 2.88,-1.82zm-219.27,0.95c0.37,-0.02 3.6,-2.72 7.16,-6c6.48,-5.95 6.48,-5.95 3.28,-7.16c-1.77,-0.66 -3.47,-1.89 -3.79,-2.72c-0.32,-0.84 0.2,-2.09 1.17,-2.79c0.96,-0.71 3.65,-1.28 5.99,-1.28c2.34,0 4.52,-0.44 4.85,-0.97c0.33,-0.54 -0.37,-1.78 -1.57,-2.75c-1.2,-0.98 -3.34,-2.74 -4.76,-3.92c-2.59,-2.13 -2.59,-2.13 -0.87,-7.58c0.95,-3 1.72,-6.47 1.72,-7.7c0,-1.35 -0.5,-2.08 -1.25,-1.84c-0.69,0.22 -4.1,4.35 -7.59,9.18c-6.33,8.77 -6.33,8.77 -6.41,19.93c-0.04,6.13 0.25,12.16 0.65,13.4c0.41,1.24 1.04,2.23 1.42,2.2zm132.13,-22.95c0.46,0 1.11,-0.71 1.44,-1.58c0.34,-0.87 0.61,-3.14 0.61,-5.03c0,-1.9 0.65,-5 1.44,-6.89c0.98,-2.35 3.28,-4.61 7.25,-7.12c3.19,-2.02 6.03,-3.87 6.31,-4.11c0.27,-0.24 -0.38,-1.07 -1.44,-1.85c-1.07,-0.78 -3.54,-1.43 -5.5,-1.44c-1.96,0 -4.05,-0.34 -4.65,-0.75c-0.59,-0.4 -2.36,-2.98 -3.92,-5.73c-1.55,-2.75 -3.5,-5.79 -4.31,-6.75c-0.82,-0.96 -1.81,-1.75 -2.2,-1.75c-0.38,0 -2.58,2.9 -4.88,6.46c-2.29,3.55 -5.24,7.26 -6.54,8.25c-1.3,0.98 -3.79,2.58 -5.54,3.54c-1.75,0.96 -3,2.31 -2.77,3c0.23,0.69 3.24,2.02 6.7,2.95c3.46,0.94 7.2,2.52 8.31,3.5c1.11,0.99 3.21,4.28 4.65,7.3c1.45,3.02 2.99,6.06 3.42,6.75c0.43,0.69 1.16,1.25 1.62,1.25zm-52.5,-3.54c1.98,-0.33 5.92,-3.36 12,-9.23c4.98,-4.8 9.2,-9.06 9.38,-9.47c0.18,-0.41 -1.96,-4.16 -4.75,-8.33c-2.79,-4.18 -5.08,-8.01 -5.08,-8.51c0,-0.51 -0.61,-0.92 -1.36,-0.92c-0.75,0 -3.11,2.36 -5.26,5.25c-2.38,3.21 -6.76,7.14 -11.29,10.13c-5.86,3.87 -7.06,5.06 -5.8,5.76c0.87,0.49 3.96,1.34 6.88,1.89c2.91,0.55 5.96,1.67 6.77,2.48c1.18,1.18 1.22,1.73 0.23,2.72c-0.69,0.69 -2.92,1.72 -4.95,2.29c-2.04,0.57 -3.84,1.74 -4,2.59c-0.17,0.85 0.73,2.06 1.99,2.69c1.26,0.63 3.62,0.92 5.24,0.66zm-52.81,-0.46c0.23,0 3.33,-2.71 6.89,-6.03c3.56,-3.31 7.63,-6.46 9.04,-7c1.41,-0.53 3.85,-0.97 5.44,-0.97c1.58,0 3.16,-0.46 3.5,-1.02c0.35,-0.56 -0.47,-2.33 -1.82,-3.93c-2.05,-2.45 -2.33,-3.53 -1.74,-6.73c0.39,-2.1 1.33,-5.5 2.07,-7.54c0.75,-2.05 1.05,-4.05 0.66,-4.43c-0.38,-0.39 -2.05,0.58 -3.69,2.16c-1.64,1.57 -4,4.36 -5.24,6.2c-1.24,1.84 -3.28,3.61 -4.54,3.93c-1.32,0.35 -3.13,2.24 -4.27,4.48c-1.09,2.13 -2.61,3.88 -3.39,3.88c-0.77,0 -2.34,-1.19 -3.48,-2.63c-1.14,-1.45 -2.07,-3.41 -2.07,-4.35c0,-0.95 1.34,-3.57 2.98,-5.83c1.63,-2.26 5.34,-5.98 8.25,-8.27c2.9,-2.3 5.27,-4.68 5.27,-5.3c0,-0.61 -1.63,-1.26 -3.61,-1.42c-2.75,-0.23 -3.9,-0.92 -4.78,-2.85c-1.14,-2.52 -1.19,-2.53 -3.88,-0.79c-1.5,0.97 -5.66,4.28 -9.23,7.35c-3.57,3.08 -6.83,6.04 -7.23,6.59c-0.41,0.55 -0.75,1.56 -0.75,2.25c-0.02,0.85 1.74,1.25 5.51,1.25c4.22,0 5.68,0.39 6.16,1.65c0.35,0.9 0.05,3.04 -0.66,4.75c-0.71,1.7 -1.29,4 -1.28,5.1c0.01,1.1 1.25,5.94 2.75,10.75c1.51,4.81 2.92,8.75 3.14,8.75zm163.75,-5c0.5,0 0.63,-2.79 0.3,-6.25c-0.33,-3.44 -1.36,-8.44 -2.28,-11.11c-1.11,-3.23 -3.6,-6.83 -7.44,-10.75c-3.17,-3.24 -6.26,-5.89 -6.87,-5.89c-0.69,0 -1.1,2.41 -1.1,6.43c0,6.04 -0.19,6.57 -3.08,8.62c-1.82,1.3 -2.71,2.56 -2.17,3.1c0.49,0.49 3.51,1.32 6.71,1.84c3.2,0.52 6.68,1.73 7.74,2.69c1.06,0.96 3.13,3.89 4.61,6.53c1.48,2.63 3.09,4.79 3.58,4.79zm-129.64,-21c0.44,0 3.92,-3.14 7.72,-6.97c6.91,-6.97 6.91,-6.97 3.33,-6.39c-2.75,0.45 -4,0.14 -5.44,-1.37c-1.02,-1.07 -2.36,-2.8 -2.97,-3.85c-0.98,-1.71 -1.38,-1.77 -3.64,-0.56c-1.39,0.75 -3.05,2.33 -3.68,3.51c-0.89,1.67 -0.83,3.04 0.29,6.14c0.79,2.19 1.92,5.23 2.51,6.74c0.6,1.51 1.44,2.75 1.88,2.75zm96.48,-2.08c0.4,0.04 1.01,-1.16 1.35,-2.67c0.34,-1.51 1.33,-5.11 2.2,-7.99c0.87,-2.88 1.32,-5.5 1,-5.82c-0.32,-0.32 -2.41,0.35 -4.64,1.49c-3,1.53 -5.95,2.07 -11.31,2.07c-6.6,0 -7.12,0.14 -5.69,1.57c0.87,0.87 4.9,3.75 8.97,6.42c4.06,2.66 7.72,4.88 8.12,4.93zm38.02,-6.95c1.3,0.02 1.75,-0.77 1.75,-3.07c0,-2.17 -0.92,-3.96 -3.07,-5.97c-1.69,-1.58 -4.64,-3.16 -6.55,-3.52c-1.91,-0.36 -3.72,-0.4 -4.02,-0.1c-0.3,0.3 -0.26,1.86 0.09,3.47c0.44,2.01 2.12,3.9 5.35,6.04c2.58,1.72 5.49,3.13 6.45,3.15zm-114.93,-6.97c0.18,0 2.42,-0.71 4.98,-1.59c3.81,-1.29 5.3,-1.37 8.24,-0.4c1.98,0.66 3.71,1.03 3.85,0.84c0.14,-0.19 1.69,-2.93 3.43,-6.08c1.75,-3.16 3.18,-5.97 3.18,-6.25c0,-0.29 -1.16,-0.52 -2.57,-0.52c-1.41,0 -5.91,1.39 -10,3.09c-4.09,1.71 -8.33,4.24 -9.43,5.64c-1.1,1.4 -2,3.15 -2,3.9c0,0.76 0.14,1.37 0.32,1.37zm-31.66,-6.42c0.92,-0.35 5.46,-2.94 10.11,-5.74c4.64,-2.81 10.53,-5.66 13.08,-6.34c4.65,-1.24 4.65,-1.24 1.65,-2.45c-1.84,-0.75 -4.89,-0.97 -7.9,-0.58c-2.69,0.35 -6.55,1.49 -8.59,2.52c-2.03,1.04 -5.12,3.51 -6.85,5.49c-1.74,1.97 -3.16,4.52 -3.16,5.66c0,1.52 0.44,1.9 1.66,1.44zm104.46,-1.15c0.33,-0.21 0.39,-1.56 0.11,-3.01c-0.28,-1.44 -2.13,-4.33 -4.12,-6.42c-2.2,-2.31 -5.22,-4.23 -7.72,-4.9c-2.27,-0.61 -5.54,-0.82 -7.28,-0.47c-1.73,0.34 -3.36,0.96 -3.61,1.37c-0.25,0.41 2.12,1.7 5.27,2.86c3.15,1.16 8.21,4.09 11.23,6.52c3.02,2.44 5.78,4.25 6.12,4.05zm-34.99,-10.47c0.35,0.02 0.91,-0.97 1.24,-2.21c0.33,-1.24 0.61,-2.78 0.62,-3.42c0,-0.65 -1.19,-2.6 -2.65,-4.34c-1.47,-1.74 -3.78,-3.59 -5.13,-4.1c-1.58,-0.6 -4.5,-0.57 -8.05,0.09c-3.06,0.56 -6,1.46 -6.53,1.99c-0.62,0.62 -0.46,1.14 0.45,1.45c0.78,0.26 3.29,0.96 5.56,1.54c2.28,0.58 6.33,2.84 9,5.01c2.68,2.18 5.15,3.97 5.49,3.99zm-33.13,-9.02c0.82,-1.19 2.51,-3.26 3.75,-4.6c1.24,-1.34 2.25,-2.82 2.25,-3.29c0,-0.47 -2.11,-1.58 -4.68,-2.46c-2.57,-0.87 -6.77,-1.59 -9.33,-1.59c-2.56,0 -4.97,0.31 -5.35,0.69c-0.38,0.39 2.13,3.56 5.58,7.05c6.2,6.28 6.3,6.33 7.78,4.2zm45.05,-8.94c0.37,0 2.42,-1.18 4.56,-2.62c2.14,-1.43 5.36,-4.07 7.16,-5.85c3.28,-3.25 3.28,-3.25 -2,-4.07c-2.9,-0.46 -7.57,-0.83 -10.39,-0.82c-2.82,0.01 -6.53,0.59 -8.25,1.31c-1.72,0.71 -3.13,1.86 -3.13,2.55c0,0.69 1.3,1.79 2.88,2.45c1.59,0.66 4.15,2.51 5.69,4.12c1.54,1.61 3.11,2.93 3.48,2.93zm-37.7,-9.46c1.18,-0.86 3.6,-2.31 5.37,-3.23c2.58,-1.32 3.73,-1.43 5.71,-0.52c1.9,0.86 3.38,0.82 6.23,-0.16c2.05,-0.71 3.89,-1.78 4.09,-2.37c0.19,-0.59 -1.13,-2.77 -2.95,-4.84c-1.81,-2.07 -5.58,-5.22 -8.36,-7c-2.79,-1.78 -7,-3.76 -9.37,-4.4c-3.25,-0.88 -5,-0.88 -7.07,-0.02c-2.19,0.91 -3.88,0.82 -8.07,-0.43c-2.91,-0.86 -7.12,-1.55 -9.36,-1.53c-4.07,0.05 -4.07,0.05 2.43,6.02c3.57,3.29 8.38,7.43 10.68,9.21c2.3,1.78 5.16,4.94 6.35,7.04c2.07,3.64 2.26,3.74 4.32,2.23zm-26.1,-1.25c0.42,-0.22 0.29,-1.28 -0.28,-2.35c-0.57,-1.07 -2.1,-2.64 -3.4,-3.49c-1.3,-0.85 -5.67,-2.81 -9.72,-4.35c-4.04,-1.54 -8.59,-3.11 -10.1,-3.47c-1.51,-0.37 -2.75,-0.31 -2.75,0.12c0,0.43 2.36,2.25 5.25,4.03c2.89,1.79 6.4,4.17 7.81,5.29c1.41,1.12 4.79,2.63 7.5,3.34c2.72,0.71 5.28,1.11 5.69,0.88zm73,-13.85c1.79,-0.39 5.46,-0.99 8.15,-1.33c4.59,-0.57 4.99,-0.85 6.22,-4.43c0.73,-2.1 3.27,-6.6 5.64,-10c2.38,-3.4 4.66,-6.74 5.09,-7.43c0.51,-0.83 0.14,-1.25 -1.09,-1.25c-1.02,0 -5.28,2.25 -9.47,5c-4.9,3.22 -9.44,7.29 -12.71,11.39c-2.79,3.52 -5.08,6.93 -5.08,7.58c0,0.82 1.01,0.97 3.25,0.47zm-84.93,-3.48c1.19,0.03 1.71,-0.55 1.5,-1.66c-0.18,-0.93 -1.79,-2.55 -3.59,-3.6c-1.79,-1.04 -3.92,-1.65 -4.73,-1.34c-0.84,0.33 -1.21,1.23 -0.86,2.13c0.33,0.86 1.78,2.21 3.23,3c1.45,0.79 3.45,1.45 4.45,1.47zm41.87,-8.96c1.62,0 4.38,-1.09 6.13,-2.42c1.75,-1.33 4.49,-2.75 6.08,-3.15c2.15,-0.54 4.02,-0.11 7.24,1.65c3.95,2.16 4.48,2.23 5.92,0.79c1.44,-1.44 1.16,-1.95 -3.12,-5.71c-2.58,-2.28 -6.26,-4.57 -8.17,-5.1c-1.91,-0.52 -5.91,-2.63 -8.89,-4.69c-5.42,-3.73 -5.42,-3.73 -8.99,-0.3c-1.96,1.89 -4.43,5.1 -5.48,7.14c-1.05,2.04 -1.91,4.85 -1.91,6.25c0,2.13 0.46,2.54 2.88,2.54c1.58,0 3.44,0.68 4.12,1.5c0.68,0.82 2.57,1.5 4.19,1.5zm79.06,-12.12c1.24,-0.65 5.63,-3.47 9.75,-6.26c5.47,-3.69 7,-5.16 5.64,-5.44c-1.02,-0.2 -3.83,0.38 -6.24,1.3c-2.54,0.97 -5.85,3.4 -7.89,5.78c-1.93,2.25 -3.51,4.48 -3.51,4.96c0,0.47 1.01,0.31 2.25,-0.34zm-42,-1.5c0.69,-0.41 2.6,-1.72 4.25,-2.91c1.65,-1.2 3.8,-2.46 4.79,-2.81c1.11,-0.39 2,-0.07 2.35,0.86c0.32,0.81 1.17,1.48 1.89,1.48c0.73,0 5.52,-4.53 10.64,-10.07c5.13,-5.53 9.48,-10.48 9.66,-11c0.19,-0.51 -0.55,-0.93 -1.64,-0.93c-1.09,0 -4.89,0.9 -8.44,1.99c-4.37,1.36 -8.01,3.37 -11.29,6.25c-2.65,2.34 -6.77,6.89 -9.14,10.12c-2.38,3.22 -4.32,6.29 -4.32,6.81c0,0.52 0.56,0.62 1.25,0.21zm-64,-2.4c0.41,0.01 0.74,-0.99 0.73,-2.23c-0.01,-1.24 -0.89,-4.16 -1.95,-6.5c-1.06,-2.34 -1.49,-4.25 -0.94,-4.25c0.54,0 2.76,0.9 4.93,2.01c2.16,1.1 6.28,4.09 9.16,6.65c2.87,2.55 5.38,4.15 5.58,3.56c0.2,-0.6 -0.39,-2.55 -1.32,-4.33c-0.92,-1.79 -3.89,-5.4 -6.59,-8.03c-2.7,-2.63 -7.71,-6.11 -11.13,-7.74c-3.42,-1.63 -8.92,-3.62 -12.22,-4.44c-3.3,-0.82 -7.69,-1.77 -9.75,-2.13c-2.25,-0.38 -3.75,-0.24 -3.75,0.35c0,0.55 2.12,2.71 4.7,4.8c2.59,2.09 7.2,6.13 10.25,8.97c3.05,2.84 6.9,6.99 8.55,9.22c1.65,2.24 3.34,4.07 3.75,4.09zm42.19,-5.98c0.76,0 3.28,-2.81 5.59,-6.25c2.32,-3.44 5.61,-7.73 7.32,-9.53c2.5,-2.65 2.89,-3.61 2.02,-5c-0.59,-0.95 -2.5,-2.55 -4.25,-3.57c-1.88,-1.11 -4.09,-1.62 -5.46,-1.28c-1.27,0.32 -5.31,3.6 -8.98,7.29c-3.68,3.69 -6.68,7.41 -6.68,8.27c0,0.86 1.37,2.47 3.03,3.57c1.67,1.1 3.7,3.01 4.52,4.25c0.82,1.24 2.12,2.25 2.89,2.25zm-58.66,-30.83c0.2,-0.62 -0.37,-3.7 -1.29,-6.85c-0.91,-3.14 -2.92,-8.21 -4.46,-11.27c-1.55,-3.05 -5.22,-7.81 -8.17,-10.57c-2.95,-2.77 -9.23,-7.64 -13.95,-10.83c-5.8,-3.91 -9.95,-5.98 -12.75,-6.36c-3.35,-0.44 -4.16,-0.25 -4.16,1.01c0,0.87 1.85,2.84 4.11,4.39c2.26,1.54 8.45,6.02 13.75,9.95c5.3,3.93 11.6,9.55 13.99,12.5c2.39,2.95 6.19,8.46 8.45,12.26c2.26,3.79 4.27,6.39 4.48,5.77zm17.29,-3.17c0.51,0 0.93,-0.11 0.94,-0.25c0,-0.14 0.9,-5.43 1.99,-11.75c1.09,-6.32 1.99,-13.05 1.99,-14.95c0.01,-2.09 0.37,-3.08 0.91,-2.5c0.5,0.52 2.14,4.45 3.64,8.73c1.51,4.27 3.19,8.06 3.75,8.4c0.67,0.42 0.78,-1.95 0.32,-7.03c-0.38,-4.21 -0.48,-7.65 -0.23,-7.65c0.26,0 2.07,2.56 4.02,5.69c1.96,3.13 4.53,8.64 5.71,12.25c1.17,3.61 2.52,6.98 3,7.49c0.47,0.52 1.15,0.65 1.5,0.29c0.35,-0.35 0.97,-2.43 1.37,-4.62c0.55,-2.97 0.17,-5.58 -1.49,-10.33c-1.23,-3.5 -2.95,-7.76 -3.83,-9.47c-0.89,-1.71 -5.07,-7.99 -9.3,-13.95c-4.27,-6.04 -12.18,-15.29 -17.82,-20.85c-5.58,-5.5 -16.34,-15.61 -23.92,-22.47c-7.57,-6.86 -16.67,-14.59 -20.23,-17.18c-3.56,-2.6 -8.06,-5.25 -10,-5.89c-1.94,-0.64 -3.76,-0.93 -4.04,-0.64c-0.28,0.28 3.18,4.49 7.7,9.35c4.52,4.85 12.01,13.55 16.65,19.33c4.65,5.78 10.98,14.78 14.08,20c3.1,5.22 8.18,15.38 11.29,22.56c3.52,8.13 5.93,15.29 6.39,18.98c0.41,3.26 1.63,8.3 2.71,11.19c1.09,2.9 2.39,5.27 2.9,5.27zm52.94,-2.51c0.48,-0.29 1.15,-2.66 1.5,-5.26c0.34,-2.6 0.87,-6.04 1.17,-7.63c0.54,-2.88 0.56,-2.87 2.56,1.75c1.11,2.56 2.41,4.65 2.89,4.65c0.48,0 0.9,-2.36 0.93,-5.25c0.03,-2.89 0.01,-9.97 -0.06,-15.75c-0.06,-5.78 -0.77,-16.12 -1.57,-23c-0.8,-6.88 -2.84,-18.24 -4.53,-25.25c-1.7,-7.01 -3.47,-12.99 -3.96,-13.28c-0.48,-0.3 -2.26,1.37 -3.96,3.71c-1.69,2.35 -5.7,9.68 -8.91,16.29c-3.2,6.62 -6.97,15.18 -8.38,19.03c-1.41,3.85 -3.04,8.8 -3.62,11c-0.58,2.2 -1.06,5.28 -1.06,6.83c-0.01,1.82 0.44,2.69 1.23,2.42c0.69,-0.23 3.5,-4.84 6.25,-10.26c4.7,-9.22 5.03,-9.63 5.34,-6.5c0.17,1.84 -0.16,6.94 -0.75,11.33c-0.6,4.4 -1.08,10.53 -1.08,13.62c0,3.62 0.59,6.46 1.67,7.99c1.66,2.38 1.66,2.38 3.5,0.11c1,-1.24 1.83,-2.93 1.83,-3.76c0,-0.89 0.58,-1.27 1.44,-0.94c0.78,0.3 1.61,0.02 1.82,-0.63c0.22,-0.66 1.21,3.08 2.21,8.3c0.99,5.22 2,9.83 2.24,10.26c0.23,0.42 0.82,0.52 1.3,0.22zm-48.27,-59.68c1.3,-0.25 2.52,-3.39 4.98,-12.82c1.78,-6.87 3.25,-13.5 3.26,-14.74c0.01,-1.24 -0.42,-2.25 -0.95,-2.25c-0.54,0 -1.68,1.35 -2.53,3c-0.85,1.65 -2,3 -2.55,3c-0.54,0 -1.41,-1.01 -1.93,-2.25c-0.51,-1.24 -2.77,-7.04 -5.01,-12.9c-2.25,-5.86 -5.5,-12.6 -7.22,-14.98c-1.73,-2.38 -3.32,-3.78 -3.55,-3.1c-0.22,0.68 1.25,8.32 3.28,16.98c2.03,8.66 4.73,20.03 6.01,25.25c1.28,5.22 2.81,10.77 3.4,12.32c0.71,1.87 1.66,2.71 2.81,2.49zm59.43,-25.15c0.6,-1.07 0.73,-4.25 0.32,-7.78c-0.39,-3.29 -1.29,-8.23 -2.01,-10.97c-0.73,-2.74 -2.69,-7.12 -4.36,-9.72c-1.67,-2.61 -5.35,-9.67 -8.17,-15.69c-4.28,-9.14 -5.29,-10.65 -6.14,-9.13c-0.56,1 -3.25,7.51 -5.99,14.47c-2.73,6.96 -5.61,15.1 -6.39,18.09c-0.77,2.98 -1.22,5.61 -0.99,5.85c0.24,0.23 1.84,-1.76 3.57,-4.43c3.13,-4.85 3.13,-4.85 2.57,4.15c-0.55,8.76 -0.51,8.93 1.18,6.51c0.96,-1.36 3.77,-5.19 6.25,-8.5c2.49,-3.3 5.19,-6.01 6,-6.01c0.86,0 3.22,3.41 5.54,8c2.23,4.4 4.86,10.01 5.84,12.48c1.53,3.85 1.92,4.22 2.78,2.68z" fill="white" fill-rule="evenodd" id="svg_3" transform="matrix(1 0 0 1 0 0)"/>
 </g>
</svg>